<svg width="268" height="210" viewBox="0 0 268 210" fill="none" xmlns="http://www.w3.org/2000/svg">
<g clip-path="url(#clip0_807_19)">
<path d="M131.942 0.223606C129.232 1.11909 127.647 3.93349 127.429 8.23184C127.365 9.45994 127.404 9.81814 127.685 10.9823C128.068 12.543 128.733 14.4491 130.242 18.2741C131.622 21.7921 131.865 22.5725 132.427 25.3741C133.028 28.3804 133.782 32.6275 133.782 32.9602C133.782 33.1137 133.834 33.2544 133.885 33.2928C133.949 33.3311 134.204 32.103 134.473 30.5807C135.674 23.6599 135.956 22.5469 137.784 17.6345C138.768 14.948 139.56 12.543 139.88 11.2381C140.212 9.86931 140.174 7.14446 139.816 5.41745C139.279 2.88449 137.975 1.02954 136.25 0.351532C135.189 -0.0578346 133.003 -0.121799 131.942 0.223606Z" fill="white"/>
<path d="M111.962 12.1208C109.111 13.1059 108.165 16.2017 110.006 18.53C110.901 19.6557 112.767 20.6152 116.717 21.984C119.325 22.8795 120.782 23.5703 122.354 24.6193C123.594 25.438 125.422 27.1267 126.394 28.3548L127.059 29.1863L127.238 28.7514C127.851 27.2674 126.547 23.3656 124.272 19.8732C122.725 17.5066 120.693 15.2295 118.89 13.8606C117.995 13.1826 116.091 12.2232 115.221 12.0185C114.314 11.801 112.729 11.8522 111.962 12.1208Z" fill="white"/>
<path d="M151.461 12.1848C149.633 12.7861 147.869 14.0142 145.965 16.0098C143.05 19.0545 140.481 23.6215 139.906 26.7557C139.765 27.5616 139.829 28.6746 140.046 29.02C140.148 29.1863 140.2 29.1607 140.391 28.8921C140.915 28.1373 142.155 26.8069 142.922 26.1544C144.763 24.5937 146.003 23.9285 149.761 22.4446C154.555 20.564 155.565 20.0651 156.766 18.9777C157.712 18.1206 158.134 17.1995 158.134 15.9714C158.134 15.2295 158.07 14.8713 157.84 14.4235C157.38 13.4769 156.728 12.8244 155.795 12.3639C155.028 11.9801 154.823 11.9417 153.66 11.9162C152.599 11.8778 152.228 11.9289 151.461 12.1848Z" fill="white"/>
<path d="M85.079 14.948C82.0366 15.3446 79.3649 16.6111 77.7415 18.4404C75.9135 20.4745 75.0315 23.5447 75.3638 26.6278C75.8368 30.9517 78.2784 33.894 82.4584 35.1989C84.0563 35.6978 85.2451 35.8385 87.1498 35.7618C88.965 35.685 89.911 35.4931 92.5315 34.6872C93.5541 34.3674 94.0782 34.265 94.1677 34.3546C94.3595 34.5465 85.0023 42.8617 80.9756 46.0599C74.7886 50.9851 71.1199 52.7761 66.3645 53.1982C62.5935 53.5436 59.4873 52.6481 57.4548 50.6397C55.8952 49.1046 55.3583 47.7869 55.3583 45.5226C55.3583 43.834 55.5629 43.0408 56.2787 41.979C56.7645 41.2626 57.2247 40.8533 58.0683 40.4183C59.2955 39.8043 61.5965 39.5612 62.5552 39.9706C63.0665 40.1753 63.7312 40.7509 63.7312 40.9684C63.7312 41.0452 63.4372 41.2626 63.0921 41.4545C62.2484 41.9279 61.9033 42.5931 61.8905 43.7316C61.8777 45.1004 62.4529 45.9064 63.9358 46.5716C64.7794 46.9554 66.4412 46.981 67.3744 46.6228C68.8445 46.0599 69.7009 45.1516 70.1483 43.6805C70.9025 41.1987 69.5603 38.6657 66.7736 37.3353C65.4314 36.6828 64.2809 36.4398 62.568 36.4398C57.5059 36.4398 53.8116 38.6401 52.5588 42.414C52.252 43.3223 52.2265 43.5909 52.2265 45.4714C52.2265 47.288 52.2648 47.6206 52.5333 48.4138C53.8116 52.2004 56.675 54.5671 61.0468 55.437C62.4657 55.7184 65.3419 55.8207 66.927 55.6416C71.6184 55.1043 75.9263 53.1727 81.0523 49.2965C83.366 47.5439 84.3248 46.7251 89.1056 42.3884C91.1509 40.5335 93.1451 38.7425 93.5541 38.4099C94.564 37.5783 94.679 37.7318 94.1677 39.2414C93.3113 41.7871 93.0812 45.1388 93.618 47.1857C94.4106 50.1664 96.3025 52.6993 98.7696 54.0809C100.93 55.2834 104.036 55.7568 106.938 55.309C108.472 55.0788 109.316 54.8229 110.492 54.2472C112.486 53.2622 113.969 51.8038 114.876 49.9361C115.669 48.2986 115.771 47.2496 115.285 45.5354C114.915 44.1794 114.25 43.092 113.151 42.0046C111.553 40.4055 109.968 39.7659 107.641 39.7659C105.084 39.7659 103.193 40.6742 102.272 42.3372C101.927 42.9641 101.889 43.1432 101.889 44.1794C101.889 45.19 101.94 45.4203 102.247 46.0727C102.835 47.2624 103.627 47.6974 105.212 47.6974C106.452 47.6974 107.347 47.2624 107.884 46.3797C108.204 45.8552 108.267 45.5994 108.319 44.6911C108.357 44.077 108.319 43.4502 108.229 43.2071L108.088 42.7978L108.728 42.8617C109.622 42.9513 110.914 43.6165 111.527 44.3201C112.959 45.9576 112.984 48.6312 111.565 50.4094C110.62 51.6119 108.983 52.597 107.219 53.0319C105.992 53.339 103.602 53.3006 102.272 52.9552C98.5907 52.0085 96.6348 49.5011 96.2769 45.2668C96.1874 44.2305 96.3792 42.1197 96.6604 40.9556C97.7598 36.5805 100.879 33.6894 105.966 32.3461C108.395 31.7065 110.006 31.5146 113.138 31.5274C115.694 31.5274 116.091 31.553 117.548 31.8728C125.78 33.6254 130.561 38.1796 131.239 44.8958C131.558 48.1579 130.74 51.0491 129.104 52.4051C127.174 54.017 123.633 54.2984 121.92 52.9808C120.948 52.2388 120.578 50.4734 121.166 49.4244C121.472 48.8871 122.521 48.0812 122.93 48.0812C123.109 48.0812 123.172 48.1707 123.172 48.4266C123.172 49.0406 123.748 49.821 124.387 50.064C125.448 50.4734 126.496 49.9873 127.071 48.7847C127.365 48.1963 127.416 47.966 127.34 47.4799C127.186 46.3158 126.279 45.2923 125.039 44.883C124.732 44.7806 124.144 44.7423 123.492 44.7806C120.872 44.9214 118.481 47.0321 118.238 49.4372C117.919 52.4818 119.785 54.9125 122.942 55.5777C124.055 55.8207 126.355 55.744 127.647 55.437C130.382 54.7717 132.542 52.8656 133.476 50.2943C133.667 49.7698 133.885 49.3732 133.949 49.3988C134.025 49.4244 134.179 49.7314 134.307 50.1024C134.997 52.1364 136.441 53.8251 138.269 54.7206C139.906 55.5137 140.711 55.6928 142.794 55.6928C144.15 55.6928 144.763 55.6289 145.338 55.4498C148.342 54.5415 149.787 52.5842 149.608 49.6674C149.531 48.4138 149.173 47.6078 148.291 46.7251C146.885 45.3179 144.469 44.6655 142.641 45.2028C142.27 45.3179 141.759 45.6122 141.414 45.9192C140.276 46.9042 140.2 48.2602 141.209 49.4116C142.104 50.4222 143.127 50.499 144.009 49.6163C144.303 49.322 144.559 48.8999 144.648 48.6057C144.801 48.0044 144.865 47.9916 145.517 48.3242C146.45 48.8103 147 49.693 147 50.7676C147.013 52.162 145.977 53.2494 144.265 53.6332C141.324 54.3112 138.602 53.1087 137.413 50.6013C136.825 49.3476 136.595 48.1963 136.595 46.3413C136.595 42.4524 137.822 39.3181 140.378 36.7724C142.718 34.4313 146.348 32.6276 150.426 31.8088C151.679 31.553 152.241 31.5146 154.619 31.5274C161.023 31.5402 165.574 33.0241 168.45 36.0304C170.687 38.3843 171.799 41.6592 171.569 45.3307C171.429 47.7997 170.841 49.3348 169.498 50.7676C168.131 52.2132 166.418 52.9552 163.848 53.211C160.333 53.5692 156.869 51.9573 155.667 49.386C155.36 48.7336 155.322 48.5033 155.322 47.3136C155.322 46.1367 155.36 45.8808 155.667 45.254C156.281 43.9363 157.533 43.0024 158.888 42.8617L159.502 42.7978L159.412 43.3351C159.31 43.9875 159.553 45.561 159.873 46.175C160.179 46.7891 160.895 47.3903 161.483 47.5566C162.161 47.7485 163.503 47.7357 163.989 47.5311C165.19 47.0194 165.881 45.8936 165.97 44.2817C166.021 43.3351 165.996 43.156 165.689 42.5291C164.833 40.7765 162.813 39.7659 160.179 39.7659C158.812 39.7659 157.827 39.9962 156.6 40.5846C153.468 42.1197 151.602 46.0727 152.574 49.1174C153.532 52.0981 156.383 54.4008 160.116 55.2067C161.713 55.5521 164.769 55.5137 166.29 55.1427C170.253 54.1577 173.039 51.42 174.19 47.3776C174.88 44.9469 174.56 41.5441 173.384 38.9599C172.592 37.2329 173.116 37.54 176.989 41.0452C182.869 46.3669 185.081 48.2347 187.727 50.128C191.651 52.9296 195.537 54.7206 199.296 55.4625C200.906 55.7824 204.869 55.7824 206.39 55.4625C210.621 54.5798 213.331 52.6226 214.878 49.3476C215.568 47.9021 215.786 46.9426 215.773 45.3947C215.76 41.4929 213.6 38.4866 209.88 37.1946C207.873 36.5037 204.549 36.2223 202.875 36.6189C199.449 37.4248 197.123 40.2136 197.557 42.9641C197.826 44.6143 198.733 45.8296 200.229 46.5204C200.842 46.8019 201.136 46.8658 202.108 46.8658C203.565 46.8658 204.422 46.5844 205.176 45.8552C206.531 44.5504 206.224 42.2605 204.575 41.4161C204.307 41.2754 204.089 41.1219 204.089 41.058C204.089 40.8149 204.639 40.2776 205.15 40.0345C206.224 39.51 208.499 39.7531 209.995 40.559C211.695 41.4673 212.526 43.092 212.526 45.5226C212.526 47.5822 211.9 49.2069 210.57 50.5374C208.717 52.3923 206.352 53.2238 202.939 53.2238C196.547 53.2238 191.907 50.6781 180.632 40.93C175.097 36.1583 173.269 34.4825 173.397 34.3546C173.487 34.265 174.113 34.393 175.417 34.7511C179.444 35.8897 181.233 36.056 183.803 35.5315C186.385 35.007 188.123 34.1243 189.772 32.474C191.025 31.2331 191.766 29.9539 192.227 28.2908C192.597 26.9348 192.623 23.8901 192.278 22.5597C191.728 20.3977 190.386 18.3893 188.698 17.1995C185.4 14.8585 180.389 14.1805 176.734 15.6005C173.372 16.8925 170.981 20.0267 171.314 22.6748C171.62 25.1054 173.205 26.5382 175.711 26.6917C177.245 26.7813 178.127 26.5126 178.919 25.7195C179.61 25.0159 179.865 24.3123 179.763 23.3145C179.597 21.6514 178.51 20.7303 176.682 20.6664C176.248 20.6536 175.967 20.5768 175.967 20.5001C175.967 20.2826 176.836 19.1568 177.334 18.7347C179.111 17.2251 183.048 17.3147 185.912 18.9266C186.986 19.5278 188.379 20.999 188.865 22.0352C190.335 25.0926 189.581 29.1351 187.177 31.2587C186.41 31.9367 184.8 32.7683 183.7 33.0497C181.361 33.6638 178.319 33.3056 173.793 31.8984C170.201 30.7726 164.091 29.5829 159.093 29.0072C155.961 28.6618 152.599 28.6234 150.631 28.9433C144.559 29.9027 139.049 32.973 136.211 36.9643C135.598 37.847 134.588 39.7403 134.191 40.7893L134.013 41.2371L133.885 40.9172C132.773 38.3203 131.354 36.1583 129.743 34.6488C125.141 30.3505 118.187 27.9966 111.565 28.4827C106.58 28.8665 99.0381 30.3377 93.8993 31.9495C90.6524 32.9602 87.8912 33.4463 86.0377 33.3312C83.6856 33.1776 81.9855 32.4485 80.4643 30.9389C78.9047 29.391 78.2911 27.8303 78.2911 25.4381C78.2784 23.1482 78.8792 21.6642 80.4131 20.1291C81.9088 18.6195 83.8518 17.8008 86.1783 17.6729C88.6454 17.5322 90.4223 18.2485 91.4961 19.8093C91.7517 20.193 91.9818 20.5384 91.9818 20.5768C91.9818 20.6152 91.5983 20.6664 91.1253 20.6792C89.5019 20.7175 88.4665 21.5107 88.1469 22.9435C87.6739 25.0926 89.2079 26.7173 91.7262 26.7173C93.9504 26.7173 95.5611 25.7451 96.2258 23.9925C97.568 20.4617 94.6663 16.4832 89.8598 15.2551C88.492 14.9096 86.3956 14.7689 85.079 14.948Z" fill="white"/>
<path d="M131.942 209.776C129.232 208.881 127.647 206.066 127.429 201.768C127.365 200.54 127.404 200.182 127.685 199.018C128.068 197.457 128.733 195.551 130.242 191.726C131.622 188.208 131.865 187.427 132.427 184.626C133.028 181.62 133.782 177.372 133.782 177.04C133.782 176.886 133.834 176.746 133.885 176.707C133.949 176.669 134.204 177.897 134.473 179.419C135.674 186.34 135.956 187.453 137.784 192.365C138.768 195.052 139.56 197.457 139.88 198.762C140.212 200.131 140.174 202.856 139.816 204.583C139.279 207.115 137.975 208.97 136.25 209.648C135.189 210.058 133.003 210.122 131.942 209.776Z" fill="white"/>
<path d="M111.962 197.879C109.111 196.894 108.165 193.798 110.006 191.47C110.901 190.344 112.767 189.385 116.717 188.016C119.325 187.12 120.782 186.43 122.354 185.381C123.594 184.562 125.422 182.873 126.394 181.645L127.059 180.814L127.238 181.249C127.851 182.733 126.547 186.634 124.272 190.127C122.725 192.493 120.693 194.771 118.89 196.139C117.995 196.817 116.091 197.777 115.221 197.981C114.314 198.199 112.729 198.148 111.962 197.879Z" fill="white"/>
<path d="M151.461 197.815C149.633 197.214 147.869 195.986 145.965 193.99C143.05 190.945 140.481 186.378 139.906 183.244C139.765 182.438 139.829 181.325 140.046 180.98C140.148 180.814 140.2 180.839 140.391 181.108C140.915 181.863 142.155 183.193 142.922 183.846C144.763 185.406 146.003 186.071 149.761 187.555C154.555 189.436 155.565 189.935 156.766 191.022C157.712 191.879 158.134 192.8 158.134 194.029C158.134 194.771 158.07 195.129 157.84 195.576C157.38 196.523 156.728 197.176 155.795 197.636C155.028 198.02 154.823 198.058 153.66 198.084C152.599 198.122 152.228 198.071 151.461 197.815Z" fill="white"/>
<path d="M85.079 195.052C82.0366 194.655 79.3649 193.389 77.7415 191.56C75.9135 189.525 75.0315 186.455 75.3638 183.372C75.8368 179.048 78.2784 176.106 82.4584 174.801C84.0563 174.302 85.2451 174.161 87.1498 174.238C88.965 174.315 89.911 174.507 92.5315 175.313C93.5541 175.633 94.0782 175.735 94.1677 175.645C94.3595 175.454 85.0023 167.138 80.9756 163.94C74.7886 159.015 71.1199 157.224 66.3645 156.802C62.5935 156.456 59.4873 157.352 57.4548 159.36C55.8952 160.895 55.3583 162.213 55.3583 164.477C55.3583 166.166 55.5629 166.959 56.2787 168.021C56.7645 168.737 57.2247 169.147 58.0683 169.582C59.2955 170.196 61.5965 170.439 62.5552 170.029C63.0665 169.825 63.7312 169.249 63.7312 169.032C63.7312 168.955 63.4372 168.737 63.0921 168.545C62.2484 168.072 61.9033 167.407 61.8905 166.268C61.8777 164.9 62.4529 164.094 63.9358 163.428C64.7794 163.045 66.4412 163.019 67.3744 163.377C68.8445 163.94 69.7009 164.848 70.1483 166.32C70.9025 168.801 69.5603 171.334 66.7736 172.665C65.4314 173.317 64.2809 173.56 62.568 173.56C57.5059 173.56 53.8116 171.36 52.5588 167.586C52.252 166.678 52.2265 166.409 52.2265 164.529C52.2265 162.712 52.2648 162.379 52.5333 161.586C53.8116 157.8 56.675 155.433 61.0468 154.563C62.4657 154.282 65.3419 154.179 66.927 154.358C71.6184 154.896 75.9263 156.827 81.0523 160.704C83.366 162.456 84.3248 163.275 89.1056 167.612C91.1509 169.467 93.1451 171.257 93.5541 171.59C94.564 172.422 94.679 172.268 94.1677 170.759C93.3113 168.213 93.0812 164.861 93.618 162.814C94.4106 159.834 96.3025 157.301 98.7696 155.919C100.93 154.717 104.036 154.243 106.938 154.691C108.472 154.921 109.316 155.177 110.492 155.753C112.486 156.738 113.969 158.196 114.876 160.064C115.669 161.701 115.771 162.75 115.285 164.465C114.915 165.821 114.25 166.908 113.151 167.995C111.553 169.594 109.968 170.234 107.641 170.234C105.084 170.234 103.193 169.326 102.272 167.663C101.927 167.036 101.889 166.857 101.889 165.821C101.889 164.81 101.94 164.58 102.247 163.927C102.835 162.738 103.627 162.303 105.212 162.303C106.452 162.303 107.347 162.738 107.884 163.62C108.204 164.145 108.267 164.401 108.319 165.309C108.357 165.923 108.319 166.55 108.229 166.793L108.088 167.202L108.728 167.138C109.622 167.049 110.914 166.383 111.527 165.68C112.959 164.042 112.984 161.369 111.565 159.591C110.62 158.388 108.983 157.403 107.219 156.968C105.992 156.661 103.602 156.699 102.272 157.045C98.5907 157.991 96.6348 160.499 96.2769 164.733C96.1874 165.769 96.3792 167.88 96.6604 169.044C97.7598 173.419 100.879 176.311 105.966 177.654C108.395 178.293 110.006 178.485 113.138 178.473C115.694 178.473 116.091 178.447 117.548 178.127C125.78 176.375 130.561 171.82 131.239 165.104C131.558 161.842 130.74 158.951 129.104 157.595C127.174 155.983 123.633 155.702 121.92 157.019C120.948 157.761 120.578 159.527 121.166 160.576C121.472 161.113 122.521 161.919 122.93 161.919C123.109 161.919 123.172 161.829 123.172 161.573C123.172 160.959 123.748 160.179 124.387 159.936C125.448 159.527 126.496 160.013 127.071 161.215C127.365 161.804 127.416 162.034 127.34 162.52C127.186 163.684 126.279 164.708 125.039 165.117C124.732 165.219 124.144 165.258 123.492 165.219C120.872 165.079 118.481 162.968 118.238 160.563C117.919 157.518 119.785 155.088 122.942 154.422C124.055 154.179 126.355 154.256 127.647 154.563C130.382 155.228 132.542 157.134 133.476 159.706C133.667 160.23 133.885 160.627 133.949 160.601C134.025 160.576 134.179 160.269 134.307 159.898C134.997 157.864 136.441 156.175 138.269 155.279C139.906 154.486 140.711 154.307 142.794 154.307C144.15 154.307 144.763 154.371 145.338 154.55C148.342 155.458 149.787 157.416 149.608 160.333C149.531 161.586 149.173 162.392 148.291 163.275C146.885 164.682 144.469 165.334 142.641 164.797C142.27 164.682 141.759 164.388 141.414 164.081C140.276 163.096 140.2 161.74 141.209 160.588C142.104 159.578 143.127 159.501 144.009 160.384C144.303 160.678 144.559 161.1 144.648 161.394C144.801 161.996 144.865 162.008 145.517 161.676C146.45 161.19 147 160.307 147 159.232C147.013 157.838 145.977 156.751 144.265 156.367C141.324 155.689 138.602 156.891 137.413 159.399C136.825 160.652 136.595 161.804 136.595 163.659C136.595 167.548 137.822 170.682 140.378 173.228C142.718 175.569 146.348 177.372 150.426 178.191C151.679 178.447 152.241 178.485 154.619 178.473C161.023 178.46 165.574 176.976 168.45 173.97C170.687 171.616 171.799 168.341 171.569 164.669C171.429 162.2 170.841 160.665 169.498 159.232C168.131 157.787 166.418 157.045 163.848 156.789C160.333 156.431 156.869 158.043 155.667 160.614C155.36 161.266 155.322 161.497 155.322 162.686C155.322 163.863 155.36 164.119 155.667 164.746C156.281 166.064 157.533 166.998 158.888 167.138L159.502 167.202L159.412 166.665C159.31 166.012 159.553 164.439 159.873 163.825C160.179 163.211 160.895 162.61 161.483 162.443C162.161 162.251 163.503 162.264 163.989 162.469C165.19 162.981 165.881 164.106 165.97 165.718C166.021 166.665 165.996 166.844 165.689 167.471C164.833 169.223 162.813 170.234 160.179 170.234C158.812 170.234 157.827 170.004 156.6 169.415C153.468 167.88 151.602 163.927 152.574 160.883C153.532 157.902 156.383 155.599 160.116 154.793C161.713 154.448 164.769 154.486 166.29 154.857C170.253 155.842 173.039 158.58 174.19 162.622C174.88 165.053 174.56 168.456 173.384 171.04C172.592 172.767 173.116 172.46 176.989 168.955C182.869 163.633 185.081 161.765 187.727 159.872C191.651 157.07 195.537 155.279 199.296 154.537C200.906 154.218 204.869 154.218 206.39 154.537C210.621 155.42 213.331 157.377 214.878 160.652C215.568 162.098 215.786 163.057 215.773 164.605C215.76 168.507 213.6 171.513 209.88 172.805C207.873 173.496 204.549 173.778 202.875 173.381C199.449 172.575 197.123 169.786 197.557 167.036C197.826 165.386 198.733 164.17 200.229 163.48C200.842 163.198 201.136 163.134 202.108 163.134C203.565 163.134 204.422 163.416 205.176 164.145C206.531 165.45 206.224 167.74 204.575 168.584C204.307 168.725 204.089 168.878 204.089 168.942C204.089 169.185 204.639 169.722 205.15 169.965C206.224 170.49 208.499 170.247 209.995 169.441C211.695 168.533 212.526 166.908 212.526 164.477C212.526 162.418 211.9 160.793 210.57 159.463C208.717 157.608 206.352 156.776 202.939 156.776C196.547 156.776 191.907 159.322 180.632 169.07C175.097 173.842 173.269 175.517 173.397 175.645C173.487 175.735 174.113 175.607 175.417 175.249C179.444 174.11 181.233 173.944 183.803 174.468C186.385 174.993 188.123 175.876 189.772 177.526C191.025 178.767 191.766 180.046 192.227 181.709C192.597 183.065 192.623 186.11 192.278 187.44C191.728 189.602 190.386 191.611 188.698 192.8C185.4 195.141 180.389 195.82 176.734 194.4C173.372 193.107 170.981 189.973 171.314 187.325C171.62 184.895 173.205 183.462 175.711 183.308C177.245 183.219 178.127 183.487 178.919 184.28C179.61 184.984 179.865 185.688 179.763 186.686C179.597 188.349 178.51 189.27 176.682 189.334C176.248 189.346 175.967 189.423 175.967 189.5C175.967 189.717 176.836 190.843 177.334 191.265C179.111 192.775 183.048 192.685 185.912 191.073C186.986 190.472 188.379 189.001 188.865 187.965C190.335 184.907 189.581 180.865 187.177 178.741C186.41 178.063 184.8 177.232 183.7 176.95C181.361 176.336 178.319 176.694 173.793 178.102C170.201 179.227 164.091 180.417 159.093 180.993C155.961 181.338 152.599 181.377 150.631 181.057C144.559 180.097 139.049 177.027 136.211 173.036C135.598 172.153 134.588 170.26 134.191 169.211L134.013 168.763L133.885 169.083C132.773 171.68 131.354 173.842 129.743 175.351C125.141 179.65 118.187 182.003 111.565 181.517C106.58 181.133 99.0381 179.662 93.8993 178.05C90.6524 177.04 87.8912 176.554 86.0377 176.669C83.6856 176.822 81.9855 177.552 80.4643 179.061C78.9047 180.609 78.2911 182.17 78.2911 184.562C78.2784 186.852 78.8792 188.336 80.4131 189.871C81.9088 191.38 83.8518 192.199 86.1783 192.327C88.6454 192.468 90.4223 191.751 91.4961 190.191C91.7517 189.807 91.9818 189.462 91.9818 189.423C91.9818 189.385 91.5983 189.334 91.1253 189.321C89.5019 189.282 88.4665 188.489 88.1469 187.056C87.6739 184.907 89.2079 183.283 91.7262 183.283C93.9504 183.283 95.5611 184.255 96.2258 186.007C97.568 189.538 94.6663 193.517 89.8598 194.745C88.492 195.09 86.3956 195.231 85.079 195.052Z" fill="white"/>
<path d="M0 123.293C0.791715 123.145 1.48446 122.748 2.07824 122.105C2.67203 121.411 3.16685 120.644 3.56271 119.802C3.95856 118.96 4.25546 118.094 4.45339 117.202C4.65131 116.261 4.75028 115.444 4.75028 114.751V80.5826C4.75028 79.8398 4.67606 78.9732 4.52761 77.9828C4.37917 76.9924 4.10702 76.0268 3.71116 75.0859C3.36479 74.1451 2.8947 73.328 2.30091 72.6347C1.70713 71.8919 0.989637 71.4215 0.148442 71.2234C0.742227 71.372 1.33601 71.471 1.9298 71.5205C2.57307 71.5205 3.21634 71.5205 3.8596 71.5205C4.79976 71.5205 5.83888 71.471 6.97697 71.372C8.16454 71.2729 9.32738 71.0749 10.4655 70.7777C11.6036 70.4806 12.6674 70.0845 13.6571 69.5893C14.6467 69.0941 15.4632 68.4503 16.1064 67.658V103.981C16.9971 103.238 18.0115 102.297 19.1496 101.158C20.2877 100.019 21.3515 98.8057 22.3412 97.5182C23.3803 96.1812 24.2462 94.8194 24.939 93.4329C25.6812 92.0463 26.0523 90.7588 26.0523 89.5704C26.0523 88.6295 25.7554 87.7877 25.1616 87.0449C24.5679 86.2526 23.7761 85.8564 22.7865 85.8564H42.3814C41.2433 86.0545 40.1052 86.5992 38.9671 87.4906C37.8291 88.3324 36.6415 89.3971 35.4044 90.6846C34.1674 91.9225 32.8808 93.2843 31.5448 94.7699C30.2088 96.206 28.7986 97.5925 27.3141 98.9295C25.8791 100.217 24.3452 101.381 22.7123 102.421C21.0794 103.461 19.3722 104.179 17.5909 104.575H27.6852C27.6852 104.575 27.9821 105.045 28.5759 105.986C29.2192 106.927 30.0356 108.091 31.0253 109.477C32.0149 110.814 33.1035 112.3 34.2911 113.934C35.4787 115.568 36.6415 117.078 37.7796 118.465C38.9671 119.802 40.0558 120.941 41.0454 121.882C42.035 122.823 42.8267 123.293 43.4205 123.293H23.8256C24.4689 123.343 24.8648 123.145 25.0132 122.699C25.2111 122.253 25.3101 121.758 25.3101 121.213C25.3101 120.471 24.8895 119.356 24.0483 117.871C23.2566 116.385 22.3412 114.85 21.302 113.265C20.2629 111.681 19.2238 110.195 18.1847 108.809C17.195 107.373 16.5023 106.333 16.1064 105.689V114.825C16.1064 115.519 16.2054 116.311 16.4033 117.202C16.6012 118.094 16.8981 118.985 17.294 119.876C17.6898 120.718 18.1847 121.461 18.7785 122.105C19.3722 122.748 20.065 123.145 20.8567 123.293H0Z" fill="white"/>
<path d="M40.5734 105.763C40.5734 102.792 41.1177 100.093 42.2063 97.6668C43.3444 95.2403 44.8536 93.1605 46.7339 91.4273C48.6142 89.6942 50.8162 88.3571 53.3397 87.4163C55.9128 86.4754 58.6343 86.005 61.5043 86.005C63.7805 86.005 65.834 86.4259 67.6648 87.2677C69.5451 88.1095 71.1286 89.2732 72.4151 90.7588C73.7511 92.1949 74.7655 93.8786 75.4582 95.8098C76.2005 97.7411 76.5716 99.7961 76.5716 101.975H52.5975V103.312C52.5975 105.392 52.9191 107.323 53.5624 109.106C54.2057 110.839 55.1211 112.374 56.3087 113.711C57.5457 114.999 59.0054 116.014 60.6878 116.757C62.4197 117.45 64.3495 117.796 66.4772 117.796C68.0607 117.796 69.6688 117.549 71.3017 117.054C72.9347 116.558 74.3449 115.741 75.5325 114.602L76.2005 115.345C74.1222 117.871 71.5986 119.827 68.6297 121.213C65.7103 122.6 62.6176 123.293 59.3518 123.293C56.8282 123.293 54.4284 122.872 52.1522 122.03C49.876 121.189 47.872 120 46.1401 118.465C44.4577 116.93 43.097 115.098 42.0578 112.968C41.0682 110.789 40.5734 108.388 40.5734 105.763ZM52.5975 100.712C54.082 100.712 55.5664 100.737 57.0509 100.787C58.5354 100.836 60.0198 100.861 61.5043 100.861C62.197 100.861 62.8898 100.861 63.5825 100.861C64.3248 100.861 65.0423 100.811 65.735 100.712C65.7845 100.465 65.8092 100.217 65.8092 99.9694C65.8092 99.6723 65.8092 99.4 65.8092 99.1524C65.8092 98.2115 65.7103 97.0726 65.5123 95.7355C65.3639 94.349 65.0423 93.0367 64.5474 91.7987C64.1021 90.5608 63.4588 89.5209 62.6176 88.679C61.8259 87.7877 60.8115 87.342 59.5745 87.342C58.1395 87.342 56.9767 87.8619 56.086 88.9019C55.2448 89.8922 54.5768 91.1055 54.082 92.5415C53.5872 93.9281 53.216 95.3889 52.9686 96.924C52.7707 98.4096 52.647 99.6723 52.5975 100.712Z" fill="white"/>
<path d="M78.8621 123.516C79.6043 123.318 80.2476 122.922 80.7919 122.327C81.3362 121.684 81.7568 120.966 82.0537 120.173C82.4 119.381 82.6474 118.564 82.7959 117.722C82.9443 116.88 83.0186 116.113 83.0186 115.42V96.3298C83.0186 95.4384 82.7464 94.6461 82.2021 93.9528C81.7073 93.2596 80.9651 92.9129 79.9754 92.9129V91.1302H83.0186C83.068 88.5552 83.4392 86.0545 84.1319 83.628C84.8247 81.1521 85.8638 78.9732 87.2493 77.0915C88.6843 75.1602 90.4409 73.6251 92.5191 72.4862C94.6469 71.2977 97.1457 70.7035 100.016 70.7035C101.104 70.7035 102.317 70.8768 103.653 71.2234C105.038 71.5205 106.3 71.991 107.438 72.6347C108.576 73.229 109.541 74.0213 110.333 75.0117C111.124 76.002 111.52 77.1658 111.52 78.5028C111.52 79.3446 111.075 80.0626 110.184 80.6569C109.294 81.2511 108.254 81.7463 107.067 82.1425C105.929 82.5386 104.766 82.8605 103.578 83.1081C102.391 83.3557 101.5 83.529 100.906 83.628C101.203 83.2814 101.451 82.8357 101.649 82.291C101.896 81.7463 102.094 81.1768 102.242 80.5826C102.391 79.9388 102.49 79.3198 102.539 78.7256C102.638 78.1314 102.688 77.6114 102.688 77.1658C102.688 76.6706 102.638 76.1506 102.539 75.6059C102.44 75.0117 102.267 74.4917 102.02 74.046C101.772 73.5508 101.426 73.1547 100.981 72.8576C100.585 72.5604 100.065 72.4119 99.4219 72.4119C98.1848 72.4119 97.2199 72.808 96.5272 73.6004C95.8344 74.3431 95.3149 75.2593 94.9685 76.3487C94.6716 77.3886 94.4737 78.5028 94.3747 79.6912C94.3252 80.8797 94.3005 81.8949 94.3005 82.7367V91.1302H101.055C102.589 91.1302 104.024 90.7093 105.36 89.8675C106.745 88.9761 107.958 87.8867 108.997 86.5992C110.036 85.3117 110.902 83.9004 111.594 82.3653C112.287 80.8302 112.757 79.3941 113.005 78.0571H116.419V91.1302H121.095V92.9129H116.419V115.197C116.419 115.89 116.518 116.682 116.716 117.574C116.914 118.465 117.186 119.332 117.532 120.173C117.928 121.015 118.423 121.758 119.017 122.402C119.611 123.046 120.279 123.442 121.021 123.59H113.302C112.015 123.59 110.877 123.318 109.887 122.773C108.898 122.179 108.057 121.436 107.364 120.545C106.671 119.653 106.127 118.638 105.731 117.499C105.384 116.36 105.211 115.197 105.211 114.008V92.9129H94.3005V123.59C94.3005 124.284 94.3995 125.051 94.5974 125.893C94.8448 126.784 95.1912 127.626 95.6365 128.418C96.0819 129.211 96.6014 129.904 97.1952 130.498C97.8385 131.142 98.5312 131.538 99.2734 131.687C98.1848 131.687 97.1952 131.439 96.3045 130.944C95.4138 130.449 94.5232 129.854 93.6325 129.161C92.7913 128.468 91.9006 127.725 90.9604 126.933C90.0203 126.14 88.9564 125.447 87.7688 124.853C86.6308 124.259 85.3195 123.813 83.835 123.516C82.4001 123.219 80.7424 123.219 78.8621 123.516Z" fill="white"/>
<path d="M123.35 105.763C123.35 102.792 123.894 100.093 124.982 97.6668C126.121 95.2403 127.63 93.1605 129.51 91.4273C131.39 89.6942 133.592 88.3571 136.116 87.4163C138.689 86.4754 141.411 86.005 144.28 86.005C146.557 86.005 148.61 86.4259 150.441 87.2677C152.321 88.1095 153.905 89.2732 155.191 90.7588C156.527 92.1949 157.542 93.8786 158.234 95.8098C158.977 97.7411 159.348 99.7961 159.348 101.975H135.374V103.312C135.374 105.392 135.695 107.323 136.339 109.106C136.982 110.839 137.897 112.374 139.085 113.711C140.322 114.999 141.782 116.014 143.464 116.757C145.196 117.45 147.126 117.796 149.253 117.796C150.837 117.796 152.445 117.549 154.078 117.054C155.711 116.558 157.121 115.741 158.309 114.602L158.977 115.345C156.898 117.871 154.375 119.827 151.406 121.213C148.486 122.6 145.394 123.293 142.128 123.293C139.604 123.293 137.205 122.872 134.928 122.03C132.652 121.189 130.648 120 128.916 118.465C127.234 116.93 125.873 115.098 124.834 112.968C123.844 110.789 123.35 108.388 123.35 105.763ZM135.374 100.712C136.858 100.712 138.343 100.737 139.827 100.787C141.312 100.836 142.796 100.861 144.28 100.861C144.973 100.861 145.666 100.861 146.359 100.861C147.101 100.861 147.818 100.811 148.511 100.712C148.561 100.465 148.585 100.217 148.585 99.9694C148.585 99.6723 148.585 99.4 148.585 99.1524C148.585 98.2115 148.486 97.0726 148.289 95.7355C148.14 94.349 147.818 93.0367 147.324 91.7987C146.878 90.5608 146.235 89.5209 145.394 88.679C144.602 87.7877 143.588 87.342 142.351 87.342C140.916 87.342 139.753 87.8619 138.862 88.9019C138.021 89.8922 137.353 91.1055 136.858 92.5415C136.363 93.9281 135.992 95.3889 135.745 96.924C135.547 98.4096 135.423 99.6723 135.374 100.712Z" fill="white"/>
<path d="M161.638 85.7078C162.875 85.9554 163.989 86.0792 164.978 86.0792C167.106 86.0792 168.986 85.6831 170.619 84.8908C172.252 84.0489 173.737 83.1328 175.073 82.1424C176.458 81.1025 177.769 80.1864 179.006 79.3941C180.293 78.5523 181.654 78.1313 183.089 78.1313C181.703 78.4285 180.639 79.1465 179.897 80.2855C179.204 81.3749 178.71 82.6376 178.413 84.0737C178.116 85.5098 177.967 86.9706 177.967 88.4562C177.967 89.8922 177.967 91.1054 177.967 92.0958C179.6 90.5607 181.431 89.1742 183.46 87.9362C185.489 86.6982 187.666 86.0792 189.992 86.0792C192.515 86.0792 194.618 86.6982 196.3 87.9362C197.983 89.1742 199.245 90.9816 200.086 93.3586C200.729 92.6158 201.57 91.8235 202.609 90.9816C203.649 90.0903 204.737 89.298 205.875 88.6047C207.063 87.8619 208.25 87.2429 209.438 86.7477C210.675 86.2525 211.813 86.0049 212.852 86.0049C215.821 86.0049 218.122 86.6735 219.755 88.0105C221.437 89.298 222.674 91.0559 223.466 93.2843C224.258 95.5127 224.728 98.0629 224.876 100.935C225.074 103.807 225.149 106.803 225.099 109.923C225.099 113.043 225.099 116.187 225.099 119.356C225.149 122.476 225.421 125.398 225.915 128.121C226.46 130.845 227.35 133.246 228.588 135.326C229.874 137.406 231.73 138.966 234.154 140.006C235.54 140.6 237.024 140.897 238.608 140.897C240.785 140.897 242.937 140.501 245.065 139.709C247.193 138.916 249.073 137.802 250.706 136.366C252.388 134.98 253.749 133.296 254.788 131.315C255.827 129.334 256.347 127.18 256.347 124.853C256.347 123.863 256.199 122.823 255.902 121.733C255.605 120.644 255.159 119.604 254.566 118.613C254.021 117.623 253.353 116.732 252.562 115.939C251.819 115.147 250.978 114.553 250.038 114.157C251.77 113.315 253.601 112.473 255.531 111.631C257.46 110.789 259.415 110.368 261.394 110.368C263.077 110.368 264.437 110.888 265.476 111.928C266.516 112.919 267.035 114.281 267.035 116.014C267.035 117.549 266.713 119.084 266.07 120.619C265.476 122.105 264.833 123.491 264.14 124.779C261.023 130.473 256.941 134.98 251.894 138.297C246.896 141.665 241.057 143.348 234.377 143.348C229.825 143.348 226.163 142.606 223.392 141.12C220.67 139.634 218.567 137.678 217.083 135.252C215.598 132.875 214.609 130.127 214.114 127.007C213.669 123.937 213.397 120.792 213.298 117.574C213.248 114.305 213.273 111.136 213.372 108.066C213.471 104.946 213.372 102.198 213.075 99.8209C212.778 97.3944 212.135 95.4384 211.145 93.9528C210.155 92.4672 208.547 91.7244 206.321 91.7244C205.182 91.7244 204.119 91.9968 203.129 92.5415C202.189 93.0862 201.298 93.7052 200.457 94.3985C200.902 95.9336 201.15 97.8896 201.199 100.267C201.249 102.594 201.249 105.07 201.199 107.694C201.199 110.319 201.199 112.968 201.199 115.642C201.199 118.267 201.348 120.693 201.645 122.922C201.991 125.101 202.535 126.933 203.277 128.418C204.02 129.953 205.133 130.87 206.617 131.167C205.529 131.167 204.514 130.919 203.574 130.424C202.634 129.929 201.694 129.334 200.754 128.641C199.814 127.948 198.824 127.205 197.785 126.413C196.795 125.62 195.682 124.927 194.445 124.333C193.257 123.788 191.921 123.392 190.437 123.145C188.952 122.897 187.27 122.971 185.39 123.367C186.181 123.219 186.874 122.823 187.468 122.179C188.111 121.535 188.631 120.792 189.027 119.951C189.422 119.109 189.719 118.242 189.917 117.351C190.115 116.41 190.214 115.568 190.214 114.825V105.689C190.214 104.55 190.115 103.188 189.917 101.604C189.769 100.019 189.422 98.5086 188.878 97.0725C188.383 95.587 187.641 94.3242 186.651 93.2843C185.711 92.2444 184.449 91.7244 182.866 91.7244C181.975 91.7244 181.109 91.9225 180.268 92.3187C179.427 92.6653 178.66 93.111 177.967 93.6557V122.327C177.967 123.07 178.066 123.912 178.264 124.853C178.512 125.794 178.833 126.685 179.229 127.527C179.674 128.369 180.219 129.112 180.862 129.755C181.505 130.449 182.248 130.87 183.089 131.018C181.951 131.018 180.912 130.771 179.971 130.275C179.031 129.83 178.091 129.26 177.151 128.567C176.26 127.874 175.32 127.131 174.33 126.339C173.341 125.596 172.252 124.927 171.065 124.333C169.877 123.788 168.516 123.392 166.982 123.145C165.498 122.897 163.791 122.971 161.861 123.367C162.653 123.169 163.345 122.748 163.939 122.105C164.533 121.461 165.028 120.718 165.424 119.876C165.869 119.034 166.191 118.168 166.389 117.276C166.586 116.385 166.685 115.568 166.685 114.825V94.3242C166.685 93.5319 166.586 92.6653 166.389 91.7244C166.191 90.7836 165.869 89.917 165.424 89.1247C165.028 88.2828 164.508 87.5648 163.865 86.9706C163.271 86.3268 162.529 85.9059 161.638 85.7078ZM253.007 86.3763C255.283 86.3763 257.337 86.7973 259.167 87.6391C261.048 88.4809 262.631 89.6446 263.918 91.1302C265.204 92.5663 266.194 94.2747 266.887 96.2555C267.629 98.1867 268 100.242 268 102.421H244.1V104.129C244.1 105.664 244.224 107.373 244.471 109.254C244.719 111.087 245.115 112.919 245.659 114.751C246.253 116.534 246.995 118.217 247.886 119.802C248.826 121.387 249.939 122.649 251.226 123.59C248.801 123.442 246.426 122.946 244.1 122.105C241.824 121.263 239.795 120.099 238.014 118.613C236.233 117.128 234.798 115.345 233.709 113.265C232.62 111.186 232.076 108.809 232.076 106.135C232.076 103.213 232.62 100.539 233.709 98.1124C234.847 95.686 236.381 93.6062 238.311 91.873C240.241 90.1398 242.467 88.8028 244.991 87.8619C247.514 86.8715 250.186 86.3763 253.007 86.3763ZM251.003 101.232H254.937L257.238 101.158C257.287 100.91 257.312 100.638 257.312 100.341C257.312 100.044 257.312 99.7713 257.312 99.5237C257.312 98.5829 257.213 97.4439 257.015 96.1069C256.867 94.7204 256.545 93.4081 256.05 92.1701C255.605 90.9321 254.961 89.8922 254.12 89.0504C253.329 88.159 252.314 87.7134 251.077 87.7134C249.642 87.7134 248.479 88.2333 247.589 89.2732C246.747 90.2636 246.079 91.4768 245.585 92.9129C245.09 94.2994 244.719 95.7603 244.471 97.2954C244.273 98.8305 244.15 100.118 244.1 101.158C245.238 101.158 246.376 101.183 247.514 101.232C248.702 101.232 249.865 101.232 251.003 101.232Z" fill="white"/>
</g>
<defs>
<clipPath id="clip0_807_19">
<rect width="268" height="210" fill="white"/>
</clipPath>
</defs>
</svg>
