<?xml version="1.0" encoding="UTF-8"?>
<svg id="SVGDoc" width="24" height="13" xmlns="http://www.w3.org/2000/svg" version="1.1" xmlns:xlink="http://www.w3.org/1999/xlink" xmlns:avocode="https://avocode.com/" viewBox="0 0 24 13"><defs></defs><desc>Generated with Avocode.</desc><g><g><title>Vector</title><path d="M23.43496,0.90272c0.17805,-0.50935 0,-0.87928 -0.78745,-0.87928h-2.6185c-0.66051,0 -0.9655,0.32394 -1.14355,0.67073c0,0 -1.34697,2.96089 -3.228,4.88082c-0.60997,0.55504 -0.88949,0.74015 -1.21994,0.74015c-0.17805,0 -0.40703,-0.18511 -0.40703,-0.69357v-4.74288c0,-0.60131 -0.20304,-0.87898 -0.76256,-0.87898h-4.11797c-0.40703,0 -0.66099,0.27767 -0.66099,0.55533c0,0.57818 0.94051,0.71731 1.04198,2.33643v3.518c0,0.76329 -0.15001,0.90301 -0.48304,0.90301c-0.88949,0 -3.04995,-2.98432 -4.34599,-6.38455c-0.25196,-0.6734 -0.50793,-0.92823 -1.16901,-0.92823h-2.64349c-0.76246,0 -0.88949,0.32365 -0.88949,0.67103c0,0.62475 0.88949,3.77045 4.14305,7.93397c2.16045,2.84371 5.23596,4.37206 8.00648,4.37206c1.67799,0 1.88103,-0.34708 1.88103,-0.92526v-2.15132c0,-0.69387 0.15249,-0.80927 0.68645,-0.80927c0.38099,0 1.06754,0.18452 2.61803,1.54942c1.77898,1.61913 2.08397,2.35957 3.0755,2.35957h2.61803c0.76246,0 1.11847,-0.34708 0.91496,-1.01781c-0.2285,-0.67103 -1.09301,-1.64227 -2.21148,-2.79862c-0.60997,-0.6473 -1.52502,-1.3646 -1.80454,-1.71168c-0.38099,-0.46278 -0.27943,-0.64789 0,-1.06409c-0.02546,0 3.17755,-4.11753 3.50752,-5.50676" fill="#7e39d7" fill-opacity="1"></path></g></g></svg>